<?xml version="1.0" standalone="no"?>
<!DOCTYPE svg PUBLIC "-//W3C//DTD SVG 20010904//EN"
 "http://www.w3.org/TR/2001/REC-SVG-20010904/DTD/svg10.dtd">
<svg version="1.0" xmlns="http://www.w3.org/2000/svg"
 width="512.000000pt" height="512.000000pt" viewBox="0 0 512.000000 512.000000"
 preserveAspectRatio="xMidYMid meet">

<g transform="translate(0.000000,512.000000) scale(0.100000,-0.100000)"
fill="#000000" stroke="none">
<path d="M2300 4849 c-36 -4 -107 -15 -157 -24 l-93 -17 0 -739 0 -739 560 0
560 0 -2 728 -3 727 -100 22 c-170 38 -324 53 -518 52 -100 -1 -211 -5 -247
-10z m460 -854 l0 -155 -150 0 -150 0 0 155 0 155 150 0 150 0 0 -155z"/>
<path d="M1770 4724 c-118 -43 -330 -147 -430 -210 -286 -182 -551 -447 -734
-734 -122 -192 -246 -494 -295 -720 -69 -323 -69 -687 2 -1005 l22 -100 625
-6 c344 -4 694 -4 778 -1 l152 5 0 459 0 458 -227 -2 -228 -3 -3 -227 -2 -228
-265 0 -265 0 0 148 c0 439 162 844 462 1152 l63 65 3 -222 2 -223 230 0 230
0 0 715 c0 566 -3 715 -12 714 -7 0 -56 -16 -108 -35z"/>
<path d="M3330 4383 l1 -348 74 -44 75 -45 0 -308 0 -308 155 0 155 0 0 171
c0 159 1 170 17 158 27 -23 135 -172 183 -252 l45 -76 348 -1 c191 0 347 2
347 4 0 16 -82 202 -130 293 -113 217 -232 376 -414 559 -183 182 -342 301
-559 414 -91 48 -277 130 -293 130 -2 0 -4 -156 -4 -347z"/>
<path d="M2050 2560 l0 -610 205 0 205 0 0 165 0 165 150 0 150 0 0 -165 0
-165 205 0 205 0 0 610 0 610 -560 0 -560 0 0 -610z"/>
<path d="M3330 2560 l0 -610 728 2 727 3 22 97 c11 54 24 120 28 148 l7 50
-601 0 -601 0 0 105 0 105 610 0 610 0 0 100 0 100 -610 0 -610 0 0 105 0 105
601 0 601 0 -7 50 c-4 28 -17 94 -28 148 l-22 97 -727 3 -728 2 0 -610z"/>
<path d="M390 1784 c0 -16 79 -194 130 -291 101 -194 226 -367 372 -518 l77
-80 1 293 0 292 105 0 105 0 0 -384 0 -384 98 -64 97 -65 3 453 2 454 105 0
105 0 0 -510 0 -511 48 -20 c62 -28 230 -89 242 -89 6 0 10 270 10 715 l0 715
-750 0 c-412 0 -750 -3 -750 -6z"/>
<path d="M2050 1051 l0 -739 88 -16 c104 -18 244 -36 289 -36 l33 0 0 350 0
350 150 0 150 0 0 -346 0 -347 73 7 c72 7 312 52 329 62 4 3 8 331 8 730 l0
724 -560 0 -560 0 0 -739z m710 279 l0 -150 -150 0 -150 0 0 150 0 150 150 0
150 0 0 -150z"/>
<path d="M3330 1090 c0 -385 2 -700 4 -700 12 0 200 81 247 106 l54 29 3 478
2 477 150 0 150 0 0 -381 0 -380 47 33 c65 46 308 288 376 374 131 168 258
384 331 568 20 49 36 90 36 92 0 2 -315 4 -700 4 l-700 0 0 -700z"/>
</g>
</svg>
